<svg width="24" height="84" viewBox="0 0 24 84" fill="none" xmlns="http://www.w3.org/2000/svg">
    <circle cx="12" cy="18" r="2" fill="#D1D1D1"/>
    <circle cx="12" cy="2" r="2" fill="#D1D1D1"/>
    <circle cx="12" cy="66" r="2" fill="#D1D1D1"/>
    <circle cx="12" cy="82" r="2" fill="#D1D1D1"/>
    <path d="M13.5 35.5C14.6 35.5 15.5 34.6 15.5 33.5C15.5 32.4 14.6 31.5 13.5 31.5C12.4 31.5 11.5 32.4 11.5 33.5C11.5 34.6 12.4 35.5 13.5 35.5ZM9.8 38.9L7 53H9.1L10.9 45L13 47V53H15V45.5L12.9 43.5L13.5 40.5C14.8 42 16.8 43 19 43V41C17.1 41 15.5 40 14.7 38.6L13.7 37C13.3 36.4 12.7 36 12 36C11.7 36 11.5 36.1 11.2 36.1L6 38.3V43H8V39.6L9.8 38.9Z"
          fill="#999999"/>
</svg>
