<svg width="32" height="32" viewBox="0 0 32 32" fill="none" xmlns="http://www.w3.org/2000/svg">
    <path d="M23.2 9.88614H12.598C11.599 8.77914 9.889 8.69814 8.8 9.70614C8.224 10.2101 7.9 10.9301 7.9 11.6861V19.7861C7.66131 19.7861 7.43239 19.881 7.2636 20.0497C7.09482 20.2185 7 20.4474 7 20.6861V21.5861H14.2V20.6861C14.2 20.4474 14.1052 20.2185 13.9364 20.0497C13.7676 19.881 13.5387 19.7861 13.3 19.7861V13.4861H23.2C23.6774 13.4861 24.1352 13.2965 24.4728 12.9589C24.8104 12.6214 25 12.1635 25 11.6861C25 11.2088 24.8104 10.7509 24.4728 10.4134C24.1352 10.0758 23.6774 9.88614 23.2 9.88614ZM10.6 13.0361C10.242 13.0361 9.89858 12.8939 9.64541 12.6407C9.39223 12.3876 9.25 12.0442 9.25 11.6861C9.25 11.3281 9.39223 10.9847 9.64541 10.7315C9.89858 10.4784 10.242 10.3361 10.6 10.3361C10.958 10.3361 11.3014 10.4784 11.5546 10.7315C11.8078 10.9847 11.95 11.3281 11.95 11.6861C11.95 12.0442 11.8078 12.3876 11.5546 12.6407C11.3014 12.8939 10.958 13.0361 10.6 13.0361ZM14.65 12.5861L13.3 10.7861H14.65L16 12.5861H14.65ZM18.25 12.5861L16.9 10.7861H18.25L19.6 12.5861H18.25ZM21.85 12.5861L20.5 10.7861H21.85L23.2 12.5861H21.85Z"
          fill="#262626"/>
</svg>

