<svg width="41" height="45" viewBox="0 0 41 45" fill="none" xmlns="http://www.w3.org/2000/svg">
<path fill-rule="evenodd" clip-rule="evenodd" d="M0.370728 13.7775H40.1743V12.1031H0.370728V13.7775Z" fill="#ED2B38"/>
<path fill-rule="evenodd" clip-rule="evenodd" d="M30.8645 16.8275H26.4647V32.4828H24.3598V21.8607C24.3598 20.9713 24.3088 20.4089 24.1437 19.8592C23.8249 18.7606 23.0845 17.5864 22.154 17.1151C21.5922 16.8275 20.9422 16.7098 20.2662 16.7098C19.476 16.7098 18.7356 16.8798 18.1114 17.2722C17.2817 17.7824 16.644 18.8912 16.3512 19.9642C16.2111 20.4611 16.1726 21.0101 16.1726 21.8607V32.4828H14.0687V16.8275H9.66844V32.4828H7.58992L7.56395 16.8275H3.30424V32.4828H1.21284V16.8275H0.370728V15.1531H40.1741V16.8275H39.333V32.4828H37.2416V16.8275H32.9559V32.4828H30.8645V16.8275Z" fill="#ED2B38"/>
<path fill-rule="evenodd" clip-rule="evenodd" d="M0.965455 9.50697L2.18977 7.83251L3.40159 9.50697L2.18977 11.1814L0.965455 9.50697Z" fill="#ED2B38"/>
<path fill-rule="evenodd" clip-rule="evenodd" d="M6.5135 39.2906C7.22695 39.6048 7.83951 40.3638 7.83951 41.4624C7.83951 42.8754 7.0868 43.7776 6.13031 44.0523C5.54352 44.2355 4.93196 44.2355 4.37115 44.2355H0.965043V34.6733H4.57474C5.02117 34.6733 5.51874 34.6859 6.01612 34.8171C6.87072 35.0523 7.66089 35.7851 7.66089 37.1326C7.66089 38.3752 6.97242 38.9769 6.5135 39.2256V39.2906ZM4.63798 38.8199C4.97042 38.8199 5.27571 38.7805 5.53104 38.6239C5.90075 38.4145 6.15627 37.9698 6.15627 37.3026C6.15627 36.6485 5.85 36.2166 5.40337 36.0601C5.18749 35.9683 4.91947 35.9417 4.57474 35.9417H2.44488V38.8199H4.63798ZM6.29643 41.4624C6.29643 40.7691 5.96517 40.3766 5.56949 40.2066C5.31416 40.1017 5.02117 40.0757 4.76584 40.0757H2.44488V42.9797H4.74086C5.02117 42.9797 5.28919 42.9537 5.50626 42.8754C6.00363 42.6788 6.29643 42.2209 6.29643 41.4624Z" fill="#ED2B38"/>
<path fill-rule="evenodd" clip-rule="evenodd" d="M8.2833 9.44136C7.96453 9.32363 7.73497 9.0227 7.73497 8.6569C7.73497 8.19879 8.0922 7.83238 8.55131 7.83238C8.99774 7.83238 9.35497 8.19879 9.35497 8.6569C9.35497 9.0227 9.1379 9.32363 8.81913 9.42855L9.59701 11.0507H7.50542L8.2833 9.44136Z" fill="#ED2B38"/>
<path fill-rule="evenodd" clip-rule="evenodd" d="M19.6477 42.8356L18.6529 44.2352H9.29137L14.3672 34.673H17.4793V42.8751L19.6477 42.8356ZM16.0255 42.94V35.8371H15.0567L11.3703 42.94H16.0255Z" fill="#ED2B38"/>
<path fill-rule="evenodd" clip-rule="evenodd" d="M14.0487 10.9307H26.4447V9.2562H14.0487V10.9307Z" fill="#ED2B38"/>
<path fill-rule="evenodd" clip-rule="evenodd" d="M17.8142 7.88098H22.8393V6.20653H17.8142V7.88098Z" fill="#ED2B38"/>
<path fill-rule="evenodd" clip-rule="evenodd" d="M18.4096 1.7676H22.1085V0.105957H18.4096V1.7676Z" fill="#ED2B38"/>
<path fill-rule="evenodd" clip-rule="evenodd" d="M18.8061 3.15592H21.5352L20.1706 5.0396L18.8061 3.15592Z" fill="#ED2B38"/>
<path fill-rule="evenodd" clip-rule="evenodd" d="M29.4592 34.673V44.2354H27.9793V39.8007H23.2482V44.2354H21.7809V34.673H23.2482V38.4926H27.9793V34.673H29.4592Z" fill="#ED2B38"/>
<path fill-rule="evenodd" clip-rule="evenodd" d="M31.679 9.42855C31.3603 9.32363 31.1432 9.0227 31.1432 8.6569C31.1432 8.19879 31.5004 7.83238 31.9471 7.83238C32.406 7.83238 32.7632 8.19879 32.7632 8.6569C32.7632 9.0227 32.5336 9.32363 32.2149 9.44136L32.9928 11.0507H30.9012L31.679 9.42855Z" fill="#ED2B38"/>
<path fill-rule="evenodd" clip-rule="evenodd" d="M35.9324 40.3368L33.3696 44.2351H31.8898L35.2314 39.3037L32.0434 34.6729H33.816L36.137 38.0479L38.3426 34.6729H39.7715L36.8255 39.0682L40.3707 44.2351H38.6106L35.9324 40.3368Z" fill="#ED2B38"/>
<path fill-rule="evenodd" clip-rule="evenodd" d="M37.0438 9.50693L38.2556 7.83247L39.4799 9.50693L38.2556 11.1814L37.0438 9.50693Z" fill="#ED2B38"/>
</svg>
